<svg xmlns="http://www.w3.org/2000/svg" viewBox="40.3 4.0 1100.7 458.8" role="img" aria-labelledby="mmxT" preserveAspectRatio="xMidYMid meet">
  <title id="mmxT">Monster Mountain MX</title>
  <defs>
    <linearGradient id="mmxDawn" x1="0" y1="1" x2="1" y2="0">
      <stop offset="0" stop-color="#FFC58C"/>
      <stop offset=".5" stop-color="#FF9A6E"/>
      <stop offset="1" stop-color="#FF7E7E"/>
    </linearGradient>
    <mask id="mmxCut" maskUnits="userSpaceOnUse" x="-600" y="-400" width="3000" height="1600">
      <rect x="-600" y="-400" width="3000" height="1600" fill="#ffffff"/>
      <path d="M27.4,-21.2 L37.2,-21.2 L92.8,172.6 L82.9,172.6 Z M102.8,-21.2 L112.6,-21.2 L168.2,172.6 L158.4,172.6 Z M187.8,-21.2 L197.7,-21.2 L253.2,172.6 L243.4,172.6 Z M250.4,-21.2 L260.3,-21.2 L315.8,172.6 L306.0,172.6 Z M331.9,-21.2 L341.7,-21.2 L397.3,172.6 L387.5,172.6 Z M399.3,-21.2 L409.2,-21.2 L464.7,172.6 L454.9,172.6 Z M480.1,-21.2 L489.9,-21.2 L545.5,172.6 L535.7,172.6 Z M541.1,-21.2 L550.9,-21.2 L606.5,172.6 L596.6,172.6 Z M620.4,-21.2 L630.3,-21.2 L685.8,172.6 L676.0,172.6 Z M684.6,-21.2 L694.5,-21.2 L750.0,172.6 L740.2,172.6 Z M762.5,-21.2 L772.4,-21.2 L827.9,172.6 L818.1,172.6 Z M820.3,-21.2 L830.2,-21.2 L885.7,172.6 L875.9,172.6 Z M898.9,-21.2 L908.8,-21.2 L964.4,172.6 L954.5,172.6 Z M964.7,-21.2 L974.6,-21.2 L1030.2,172.6 L1020.3,172.6 Z M24.8,158.2 L33.7,158.2 L84.1,333.9 L75.2,333.9 Z M93.2,158.2 L102.2,158.2 L152.6,333.9 L143.6,333.9 Z M170.4,158.2 L179.3,158.2 L229.7,333.9 L220.8,333.9 Z M227.1,158.2 L236.1,158.2 L286.5,333.9 L277.5,333.9 Z M299.7,158.2 L308.7,158.2 L359.1,333.9 L350.1,333.9 Z M358.0,158.2 L366.9,158.2 L417.3,333.9 L408.4,333.9 Z M432.5,158.2 L441.4,158.2 L491.8,333.9 L482.9,333.9 Z M493.6,158.2 L502.6,158.2 L553.0,333.9 L544.0,333.9 Z M568.2,158.2 L577.1,158.2 L627.5,333.9 L618.6,333.9 Z M626.4,158.2 L635.3,158.2 L685.7,333.9 L676.8,333.9 Z M702.3,158.2 L711.2,158.2 L761.6,333.9 L752.7,333.9 Z M766.3,158.2 L775.2,158.2 L825.6,333.9 L816.7,333.9 Z M906.2,158.2 L915.2,158.2 L965.6,333.9 L956.6,333.9 Z M967.4,158.2 L976.3,158.2 L1026.7,333.9 L1017.8,333.9 Z M483.3,327.1 L489.6,327.1 L525.2,451.4 L518.9,451.4 Z M531.6,327.1 L538.0,327.1 L573.6,451.4 L567.3,451.4 Z M588.5,327.1 L594.8,327.1 L630.4,451.4 L624.1,451.4 Z M633.7,327.1 L640.1,327.1 L675.7,451.4 L669.4,451.4 Z" fill="#000000"/>
    </mask>
  </defs>
  <g transform="translate(135.5,9) skewX(-16)" fill-rule="evenodd">
  <g transform="translate(10,11)" fill="#24262C" opacity=".20" mask="url(#mmxCut)">
    <path fill-rule="evenodd" d="M0.00,151.40 L10.60,0.00 L46.93,0.00 L71.16,72.67 L95.38,0.00 L131.72,0.00 L142.32,151.40 L107.49,151.40 L102.95,63.59 L83.27,115.06 L59.05,115.06 L39.36,63.59 L34.82,151.40 Z M118.09,12.11 L139.29,12.11 L140.80,30.28 L119.61,30.28 Z"/>
    <path fill-rule="evenodd" d="M166.16,36.34 L202.50,0.00 L250.95,0.00 L284.25,33.31 L284.25,115.06 L247.92,151.40 L199.47,151.40 L166.16,118.09 Z M200.98,48.45 L217.64,31.79 L238.83,31.79 L250.95,46.93 L250.95,102.95 L234.29,119.61 L213.10,119.61 L200.98,104.47 Z"/>
    <path fill-rule="evenodd" d="M308.10,151.40 L315.67,0.00 L353.52,0.00 L397.43,84.78 L401.97,0.00 L435.28,0.00 L427.71,151.40 L389.86,151.40 L345.95,66.62 L341.41,151.40 Z M408.02,12.11 L429.22,12.11 L427.71,30.28 L406.51,30.28 Z"/>
    <path fill-rule="evenodd" d="M468.21,0.00 L574.19,0.00 L568.13,30.28 L501.51,30.28 L498.49,62.07 L571.16,62.07 L563.59,151.40 L459.12,151.40 L465.18,121.12 L534.82,121.12 L537.85,89.33 L462.15,89.33 Z"/>
    <path fill-rule="evenodd" d="M602.57,0.00 L719.15,0.00 L713.10,30.28 L678.27,30.28 L667.68,151.40 L632.85,151.40 L643.45,30.28 L598.03,30.28 Z M697.96,6.06 L716.12,6.06 L714.61,22.71 L696.44,22.71 Z"/>
    <path fill-rule="evenodd" d="M750.57,0.00 L852.01,0.00 L845.95,30.28 L783.88,30.28 L780.85,60.56 L839.89,60.56 L835.35,87.81 L777.82,87.81 L774.79,121.12 L845.95,121.12 L839.89,151.40 L743.00,151.40 Z"/>
    <path fill-rule="evenodd" d="M875.85,151.40 L883.42,0.00 L960.64,0.00 L1000.00,33.31 L992.43,72.67 L963.66,89.33 L996.97,151.40 L956.09,151.40 L931.87,93.87 L916.73,93.87 L910.67,151.40 Z M916.73,28.77 L954.58,28.77 L962.15,40.88 L959.12,62.07 L948.52,71.16 L913.70,71.16 Z"/>
    <path fill-rule="evenodd" d="M0.00,314.72 L9.61,177.40 L42.57,177.40 L64.54,243.31 L86.51,177.40 L119.46,177.40 L129.08,314.72 L97.49,314.72 L93.37,235.07 L75.52,281.76 L53.55,281.76 L35.70,235.07 L31.58,314.72 Z M107.11,188.39 L126.33,188.39 L127.70,204.86 L108.48,204.86 Z"/>
    <path fill-rule="evenodd" d="M150.70,210.36 L183.66,177.40 L227.60,177.40 L257.81,207.61 L257.81,281.76 L224.85,314.72 L180.91,314.72 L150.70,284.51 Z M182.29,221.34 L197.39,206.24 L216.62,206.24 L227.60,219.97 L227.60,270.77 L212.50,285.88 L193.27,285.88 L182.29,272.15 Z"/>
    <path fill-rule="evenodd" d="M283.56,177.40 L316.51,177.40 L312.39,276.27 L324.75,291.37 L343.98,291.37 L356.33,274.89 L360.45,177.40 L389.29,177.40 L382.42,285.88 L356.33,314.72 L308.27,314.72 L279.44,285.88 Z"/>
    <path fill-rule="evenodd" d="M410.92,314.72 L417.78,177.40 L452.11,177.40 L491.93,254.30 L496.05,177.40 L526.26,177.40 L519.40,314.72 L485.07,314.72 L445.25,237.82 L441.13,314.72 Z M501.54,188.39 L520.77,188.39 L519.40,204.86 L500.17,204.86 Z"/>
    <path fill-rule="evenodd" d="M552.01,177.40 L657.74,177.40 L652.25,204.86 L620.67,204.86 L611.05,314.72 L579.47,314.72 L589.08,204.86 L547.89,204.86 Z M638.52,182.89 L654.99,182.89 L653.62,198.00 L637.14,198.00 Z"/>
    <path fill-rule="evenodd" d="M679.37,314.72 L726.06,177.40 L757.64,177.40 L800.21,314.72 L765.88,314.72 L757.64,287.25 L723.31,287.25 L713.70,314.72 Z M727.43,276.27 L753.52,276.27 L741.16,208.98 Z"/>
    <path fill-rule="evenodd" d="M828.70,177.40 L863.03,177.40 L856.16,314.72 L821.83,314.72 Z M849.30,191.13 L861.65,191.13 L860.28,207.61 L847.92,207.61 Z"/>
    <path fill-rule="evenodd" d="M884.65,314.72 L891.52,177.40 L925.85,177.40 L965.67,254.30 L969.79,177.40 L1000.00,177.40 L993.13,314.72 L958.81,314.72 L918.98,237.82 L914.86,314.72 Z M975.28,188.39 L994.51,188.39 L993.13,204.86 L973.91,204.86 Z"/>
    <path fill-rule="evenodd" d="M465.72,437.81 L472.52,340.72 L495.82,340.72 L511.35,387.32 L526.89,340.72 L550.19,340.72 L556.99,437.81 L534.66,437.81 L531.74,381.49 L519.12,414.51 L503.59,414.51 L490.97,381.49 L488.05,437.81 Z M541.45,348.48 L555.05,348.48 L556.02,360.13 L542.42,360.13 Z"/>
    <path fill-rule="evenodd" d="M572.28,340.72 L598.49,340.72 L615.97,375.67 L631.51,340.72 L657.72,340.72 L628.59,390.23 L655.78,437.81 L629.56,437.81 L614.03,406.74 L598.49,437.81 L572.28,437.81 L601.41,390.23 Z"/>
  </g>
  <g fill="url(#mmxDawn)" mask="url(#mmxCut)">
    <path fill-rule="evenodd" d="M0.00,151.40 L10.60,0.00 L46.93,0.00 L71.16,72.67 L95.38,0.00 L131.72,0.00 L142.32,151.40 L107.49,151.40 L102.95,63.59 L83.27,115.06 L59.05,115.06 L39.36,63.59 L34.82,151.40 Z M118.09,12.11 L139.29,12.11 L140.80,30.28 L119.61,30.28 Z"/>
    <path fill-rule="evenodd" d="M166.16,36.34 L202.50,0.00 L250.95,0.00 L284.25,33.31 L284.25,115.06 L247.92,151.40 L199.47,151.40 L166.16,118.09 Z M200.98,48.45 L217.64,31.79 L238.83,31.79 L250.95,46.93 L250.95,102.95 L234.29,119.61 L213.10,119.61 L200.98,104.47 Z"/>
    <path fill-rule="evenodd" d="M308.10,151.40 L315.67,0.00 L353.52,0.00 L397.43,84.78 L401.97,0.00 L435.28,0.00 L427.71,151.40 L389.86,151.40 L345.95,66.62 L341.41,151.40 Z M408.02,12.11 L429.22,12.11 L427.71,30.28 L406.51,30.28 Z"/>
    <path fill-rule="evenodd" d="M468.21,0.00 L574.19,0.00 L568.13,30.28 L501.51,30.28 L498.49,62.07 L571.16,62.07 L563.59,151.40 L459.12,151.40 L465.18,121.12 L534.82,121.12 L537.85,89.33 L462.15,89.33 Z"/>
    <path fill-rule="evenodd" d="M602.57,0.00 L719.15,0.00 L713.10,30.28 L678.27,30.28 L667.68,151.40 L632.85,151.40 L643.45,30.28 L598.03,30.28 Z M697.96,6.06 L716.12,6.06 L714.61,22.71 L696.44,22.71 Z"/>
    <path fill-rule="evenodd" d="M750.57,0.00 L852.01,0.00 L845.95,30.28 L783.88,30.28 L780.85,60.56 L839.89,60.56 L835.35,87.81 L777.82,87.81 L774.79,121.12 L845.95,121.12 L839.89,151.40 L743.00,151.40 Z"/>
    <path fill-rule="evenodd" d="M875.85,151.40 L883.42,0.00 L960.64,0.00 L1000.00,33.31 L992.43,72.67 L963.66,89.33 L996.97,151.40 L956.09,151.40 L931.87,93.87 L916.73,93.87 L910.67,151.40 Z M916.73,28.77 L954.58,28.77 L962.15,40.88 L959.12,62.07 L948.52,71.16 L913.70,71.16 Z"/>
    <path fill-rule="evenodd" d="M0.00,314.72 L9.61,177.40 L42.57,177.40 L64.54,243.31 L86.51,177.40 L119.46,177.40 L129.08,314.72 L97.49,314.72 L93.37,235.07 L75.52,281.76 L53.55,281.76 L35.70,235.07 L31.58,314.72 Z M107.11,188.39 L126.33,188.39 L127.70,204.86 L108.48,204.86 Z"/>
    <path fill-rule="evenodd" d="M150.70,210.36 L183.66,177.40 L227.60,177.40 L257.81,207.61 L257.81,281.76 L224.85,314.72 L180.91,314.72 L150.70,284.51 Z M182.29,221.34 L197.39,206.24 L216.62,206.24 L227.60,219.97 L227.60,270.77 L212.50,285.88 L193.27,285.88 L182.29,272.15 Z"/>
    <path fill-rule="evenodd" d="M283.56,177.40 L316.51,177.40 L312.39,276.27 L324.75,291.37 L343.98,291.37 L356.33,274.89 L360.45,177.40 L389.29,177.40 L382.42,285.88 L356.33,314.72 L308.27,314.72 L279.44,285.88 Z"/>
    <path fill-rule="evenodd" d="M410.92,314.72 L417.78,177.40 L452.11,177.40 L491.93,254.30 L496.05,177.40 L526.26,177.40 L519.40,314.72 L485.07,314.72 L445.25,237.82 L441.13,314.72 Z M501.54,188.39 L520.77,188.39 L519.40,204.86 L500.17,204.86 Z"/>
    <path fill-rule="evenodd" d="M552.01,177.40 L657.74,177.40 L652.25,204.86 L620.67,204.86 L611.05,314.72 L579.47,314.72 L589.08,204.86 L547.89,204.86 Z M638.52,182.89 L654.99,182.89 L653.62,198.00 L637.14,198.00 Z"/>
    <path fill-rule="evenodd" d="M679.37,314.72 L726.06,177.40 L757.64,177.40 L800.21,314.72 L765.88,314.72 L757.64,287.25 L723.31,287.25 L713.70,314.72 Z M727.43,276.27 L753.52,276.27 L741.16,208.98 Z"/>
    <path fill-rule="evenodd" d="M828.70,177.40 L863.03,177.40 L856.16,314.72 L821.83,314.72 Z M849.30,191.13 L861.65,191.13 L860.28,207.61 L847.92,207.61 Z"/>
    <path fill-rule="evenodd" d="M884.65,314.72 L891.52,177.40 L925.85,177.40 L965.67,254.30 L969.79,177.40 L1000.00,177.40 L993.13,314.72 L958.81,314.72 L918.98,237.82 L914.86,314.72 Z M975.28,188.39 L994.51,188.39 L993.13,204.86 L973.91,204.86 Z"/>
  </g>
  <g fill="#24262C">
    <g mask="url(#mmxCut)">
    <path fill-rule="evenodd" d="M465.72,437.81 L472.52,340.72 L495.82,340.72 L511.35,387.32 L526.89,340.72 L550.19,340.72 L556.99,437.81 L534.66,437.81 L531.74,381.49 L519.12,414.51 L503.59,414.51 L490.97,381.49 L488.05,437.81 Z M541.45,348.48 L555.05,348.48 L556.02,360.13 L542.42,360.13 Z"/>
    <path fill-rule="evenodd" d="M572.28,340.72 L598.49,340.72 L615.97,375.67 L631.51,340.72 L657.72,340.72 L628.59,390.23 L655.78,437.81 L629.56,437.81 L614.03,406.74 L598.49,437.81 L572.28,437.81 L601.41,390.23 Z"/>
    </g>
    <path d="M313.7,389.3 L441.7,389.3 L435.7,395.3 L308.7,395.3 Z"/>
    <path d="M681.7,389.3 L809.7,389.3 L804.7,395.3 L675.7,395.3 Z"/>
  </g>
  </g>
</svg>
